# ProBuilder 5.0.7
# https://unity3d.com/unity/features/worldbuilding/probuilder
# 2023-08-28 오전 10:41:47

mtllib ./Bottom_RIng_(1).mtl
o Bottom RIng (1)

g Bottom RIng (1)
v -1.774532 0 0
v -1.756959 0.05219946 0
v -1.714532 0.07382118 0
v -1.672106 0.05219946 0
v -1.654532 -7.450581E-09 0
v -1.672106 -0.05219946 0
v -1.714532 -0.07382119 0
v -1.756959 -0.05219947 0
v -1.639195 0 -0.6595743
v -1.623035 0.05219946 -0.6526687
v -1.584021 0.07382118 -0.6359973
v -1.545008 0.05219946 -0.619326
v -1.528848 -7.450581E-09 -0.6124206
v -1.545008 -0.05219946 -0.619326
v -1.584021 -0.07382119 -0.6359973
v -1.623035 -0.05219947 -0.6526687
v -1.254118 0 -1.218252
v -1.241887 0.05219946 -1.205633
v -1.212358 0.07382118 -1.17517
v -1.182828 0.05219946 -1.144706
v -1.170597 -7.450581E-09 -1.132088
v -1.182828 -0.05219946 -1.144706
v -1.212358 -0.07382119 -1.17517
v -1.241887 -0.05219947 -1.205633
v -0.6784792 0 -1.591113
v -0.6719313 0.05219946 -1.574805
v -0.6561234 0.07382118 -1.535433
v -0.6403153 0.05219946 -1.496062
v -0.6337676 -7.450581E-09 -1.479754
v -0.6403153 -0.05219946 -1.496062
v -0.6561234 -0.07382119 -1.535433
v -0.6719313 -0.05219947 -1.574805
v -1.192093E-07 0 -1.721941
v -1.192093E-07 0.05219946 -1.704367
v -1.192093E-07 0.07382118 -1.661941
v -1.192093E-07 0.05219946 -1.619515
v -1.192093E-07 -7.450581E-09 -1.601941
v -1.192093E-07 -0.05219946 -1.619515
v -1.192093E-07 -0.07382119 -1.661941
v -1.192093E-07 -0.05219947 -1.704367
v 0.6784785 0 -1.591113
v 0.6719308 0.05219946 -1.574805
v 0.6561229 0.07382118 -1.535433
v 0.6403148 0.05219946 -1.496062
v 0.6337669 -7.450581E-09 -1.479754
v 0.6403148 -0.05219946 -1.496062
v 0.6561229 -0.07382119 -1.535433
v 0.6719308 -0.05219947 -1.574805
v 1.254118 0 -1.218252
v 1.241886 0.05219946 -1.205633
v 1.212357 0.07382118 -1.17517
v 1.182828 0.05219946 -1.144706
v 1.170596 -7.450581E-09 -1.132088
v 1.182828 -0.05219946 -1.144706
v 1.212357 -0.07382119 -1.17517
v 1.241886 -0.05219947 -1.205633
v 1.639195 0 -0.6595743
v 1.623035 0.05219946 -0.6526687
v 1.584021 0.07382118 -0.6359974
v 1.545007 0.05219946 -0.6193261
v 1.528847 -7.450581E-09 -0.6124206
v 1.545007 -0.05219946 -0.6193261
v 1.584021 -0.07382119 -0.6359974
v 1.623035 -0.05219947 -0.6526687
v 1.774532 0 1.192093E-07
v 1.756958 0.05219946 1.192093E-07
v 1.714532 0.07382118 1.192093E-07
v 1.672106 0.05219946 1.192093E-07
v 1.654532 -7.450581E-09 1.192093E-07
v 1.672106 -0.05219946 1.192093E-07
v 1.714532 -0.07382119 1.192093E-07
v 1.756958 -0.05219947 1.192093E-07
v 1.639195 0 0.659574
v 1.623035 0.05219946 0.6526687
v 1.584021 0.07382118 0.6359973
v 1.545007 0.05219946 0.6193259
v 1.528847 -7.450581E-09 0.6124206
v 1.545007 -0.05219946 0.6193259
v 1.584021 -0.07382119 0.6359973
v 1.623035 -0.05219947 0.6526687
v 1.254118 0 1.218252
v 1.241886 0.05219946 1.205633
v 1.212357 0.07382118 1.17517
v 1.182828 0.05219946 1.144706
v 1.170597 -7.450581E-09 1.132088
v 1.182828 -0.05219946 1.144706
v 1.212357 -0.07382119 1.17517
v 1.241886 -0.05219947 1.205633
v 0.678479 0 1.591113
v 0.671931 0.05219946 1.574805
v 0.6561232 0.07382118 1.535433
v 0.6403153 0.05219946 1.496062
v 0.6337674 -7.450581E-09 1.479754
v 0.6403153 -0.05219946 1.496062
v 0.6561232 -0.07382119 1.535433
v 0.671931 -0.05219947 1.574805
v -2.384186E-07 0 1.721941
v -2.384186E-07 0.05219946 1.704367
v -2.384186E-07 0.07382118 1.661941
v -2.384186E-07 0.05219946 1.619515
v -2.384186E-07 -7.450581E-09 1.601941
v -2.384186E-07 -0.05219946 1.619515
v -2.384186E-07 -0.07382119 1.661941
v -2.384186E-07 -0.05219947 1.704367
v -0.6784794 0 1.591113
v -0.6719315 0.05219946 1.574805
v -0.6561236 0.07382118 1.535433
v -0.6403158 0.05219946 1.496062
v -0.6337678 -7.450581E-09 1.479753
v -0.6403158 -0.05219946 1.496062
v -0.6561236 -0.07382119 1.535433
v -0.6719315 -0.05219947 1.574805
v -1.254118 0 1.218252
v -1.241886 0.05219946 1.205634
v -1.212357 0.07382118 1.17517
v -1.182828 0.05219946 1.144706
v -1.170597 -7.450581E-09 1.132088
v -1.182828 -0.05219946 1.144706
v -1.212357 -0.07382119 1.17517
v -1.241886 -0.05219947 1.205634
v -1.639195 0 0.659574
v -1.623035 0.05219946 0.6526687
v -1.584021 0.07382118 0.6359973
v -1.545008 0.05219946 0.6193259
v -1.528848 -7.450581E-09 0.6124206
v -1.545008 -0.05219946 0.6193259
v -1.584021 -0.07382119 0.6359973
v -1.623035 -0.05219947 0.6526687

vt 0 0
vt 0 0.0424264
vt 1.756959 0
vt 1.714532 0
vt 1.672106 0
vt 0 -0.0424264
vt -1.672106 0
vt -1.714532 0
vt -1.756959 0
vt -0.6595742 0
vt -0.6526687 0.0424264
vt 1.623035 -0.6526687
vt 1.584021 -0.6359974
vt 1.545008 -0.619326
vt 0.619326 0.0424264
vt 0.6124205 -5.245366E-09
vt 0.619326 -0.0424264
vt -1.545008 -0.619326
vt -1.584021 -0.6359974
vt -1.623035 -0.6526687
vt -0.6526687 -0.04242641
vt -1.218252 0
vt -1.205633 0.0424264
vt 1.241886 -1.205633
vt 1.212357 -1.17517
vt 1.182828 -1.144706
vt 1.144706 0.0424264
vt 1.132088 -5.245366E-09
vt 1.144706 -0.0424264
vt -1.182828 -1.144706
vt -1.212357 -1.17517
vt -1.241886 -1.205633
vt -1.205633 -0.04242641
vt 1.254118 0
vt 1.241886 0.0424264
vt -1.182828 0.0424264
vt -1.170597 -5.245366E-09
vt -1.182828 -0.0424264
vt 1.241886 -0.04242641
vt 0.6784789 0
vt 0.671931 0.0424264
vt 0.671931 -1.574805
vt 0.6561231 -1.535433
vt 0.6403152 -1.496062
vt -0.6403152 0.0424264
vt -0.6337673 -5.245366E-09
vt -0.6403152 -0.0424264
vt -0.6403152 -1.496062
vt -0.6561231 -1.535433
vt -0.671931 -1.574805
vt 0.671931 -0.04242641
vt -7.241578E-08 -1.704367
vt -7.494459E-08 -1.661941
vt -7.747339E-08 -1.619515
vt -0.6784788 0
vt -0.671931 0.0424264
vt 0.6403151 0.0424264
vt 0.6337672 -5.245366E-09
vt 0.6403151 -0.0424264
vt -0.671931 -0.04242641
vt -1.254118 0
vt -1.241886 0.0424264
vt 1.182828 0.0424264
vt 1.170597 -5.245366E-09
vt 1.182828 -0.0424264
vt -1.241886 -0.04242641
vt 1.218252 0
vt 1.205633 0.0424264
vt -1.144706 0.0424264
vt -1.132088 -5.245366E-09
vt -1.144706 -0.0424264
vt 1.205633 -0.04242641
vt 0.6595743 0
vt 0.6526688 0.0424264
vt -0.6193261 0.0424264
vt -0.6124206 -5.245366E-09
vt -0.6193261 -0.0424264
vt 0.6526688 -0.04242641
vt -1.623035 0.6526687
vt -1.584021 0.6359973
vt -1.545008 0.6193259
vt 1.545008 0.6193259
vt 1.584021 0.6359973
vt 1.623035 0.6526687
vt -1.241887 1.205633
vt -1.212358 1.17517
vt -1.182828 1.144706
vt 1.182828 1.144706
vt 1.212358 1.17517
vt 1.241887 1.205633
vt -0.6719313 1.574805
vt -0.6561233 1.535433
vt -0.6403154 1.496062
vt 0.6403154 1.496062
vt 0.6561233 1.535433
vt 0.6719313 1.574805
vt 2.29744E-08 1.704367
vt 2.044559E-08 1.661941
vt 1.791678E-08 1.619515

vn -1 -5.60615E-08 -8.809664E-08
vn -0.7550731 0.6556406 -1.037741E-07
vn -6.718775E-08 1 4.010269E-06
vn 0.755072 0.6556419 -2.93417E-06
vn 1 7.688482E-07 1.641811E-07
vn 0.7550723 -0.6556416 3.086781E-06
vn -3.275402E-07 -1 -3.989272E-06
vn -0.7550732 -0.6556405 -6.511316E-08
vn -0.9199163 -2.365796E-05 -0.3921146
vn -0.6946435 0.6555933 -0.2960874
vn 0.6946264 0.6556005 0.2961116
vn 0.9198951 2.60759E-05 0.3921646
vn 0.6946302 -0.6555938 0.2961175
vn -0.6946383 -0.6555999 -0.2960852
vn -0.6968889 -3.176733E-05 -0.7171791
vn -0.526296 0.6554914 -0.5416119
vn 0.5262609 0.6555004 0.5416353
vn 0.6968369 3.431925E-05 0.7172296
vn 0.5262671 -0.6554908 0.5416409
vn -0.5262907 -0.6555003 -0.5416064
vn -0.3733679 -2.128793E-05 -0.9276834
vn -0.2820014 0.6553993 -0.7006618
vn 0.2819724 0.6554045 0.7006686
vn 0.3733232 2.286265E-05 0.9277014
vn 0.281978 -0.655398 0.7006725
vn -0.2819995 -0.6554053 -0.700657
vn -1.598328E-08 1.358579E-07 -1
vn 4.064227E-09 0.6553656 -0.7553118
vn -2.381631E-06 0.6553645 0.7553127
vn 2.397481E-08 4.794961E-08 1
vn 2.462915E-06 -0.6553645 0.7553127
vn -5.689917E-08 -0.6553656 -0.7553118
vn 0.3733679 2.135187E-05 -0.9276834
vn 0.2819996 0.6554049 -0.7006573
vn -0.2819778 0.6553985 0.700672
vn -0.3733231 -2.273475E-05 0.9277014
vn -0.2819721 -0.6554051 0.7006682
vn 0.2820016 -0.6553987 -0.7006623
vn 0.6968887 3.151932E-05 -0.7171793
vn 0.5262909 0.6554999 -0.5416066
vn -0.5262662 0.6554922 0.54164
vn -0.6968368 -3.479128E-05 0.7172298
vn -0.5262601 -0.6555014 0.5416346
vn 0.5262964 -0.6554909 -0.5416123
vn 0.9199163 2.30415E-05 -0.3921147
vn 0.6946374 0.6556009 -0.2960849
vn -0.69463 0.6555941 0.2961174
vn -0.9198951 -2.699661E-05 0.3921646
vn -0.694627 -0.6555998 0.2961117
vn 0.6946435 -0.6555934 -0.2960873
vn 0.5262963 0.6554911 0.5416121
vn -0.5262612 0.6555001 -0.5416354
vn -0.5262673 -0.6554903 -0.5416411
vn 0.2820016 0.655399 0.700662
vn -0.2819725 0.6554044 -0.7006687
vn 0.2819723 -0.6554052 -0.700668
vn -0.2820017 -0.6553984 0.7006625
vn -0.5262962 -0.6554911 0.5416122

usemtl Red_1
f 2/2/2 10/11/10 9/10/9 1/1/1
f 3/4/3 11/13/3 10/12/10 2/3/2
f 4/5/4 12/14/11 11/13/3 3/4/3
f 5/1/5 13/16/12 12/15/11 4/2/4
f 6/6/6 14/17/13 13/16/12 5/1/5
f 7/8/7 15/19/7 14/18/13 6/7/6
f 8/9/8 16/20/14 15/19/7 7/8/7
f 1/1/1 9/10/9 16/21/14 8/6/8
f 10/11/10 18/23/16 17/22/15 9/10/9
f 11/13/3 19/25/3 18/24/16 10/12/10
f 12/14/11 20/26/17 19/25/3 11/13/3
f 13/16/12 21/28/18 20/27/17 12/15/11
f 14/17/13 22/29/19 21/28/18 13/16/12
f 15/19/7 23/31/7 22/30/19 14/18/13
f 16/20/14 24/32/20 23/31/7 15/19/7
f 9/10/9 17/22/15 24/33/20 16/21/14
f 18/35/16 26/41/22 25/40/21 17/34/15
f 19/25/3 27/43/3 26/42/22 18/24/16
f 20/26/17 28/44/23 27/43/3 19/25/3
f 21/37/18 29/46/24 28/45/23 20/36/17
f 22/38/19 30/47/25 29/46/24 21/37/18
f 23/31/7 31/49/7 30/48/25 22/30/19
f 24/32/20 32/50/26 31/49/7 23/31/7
f 17/34/15 25/40/21 32/51/26 24/39/20
f 26/41/22 34/2/28 33/1/27 25/40/21
f 27/43/3 35/53/3 34/52/28 26/42/22
f 28/44/23 36/54/29 35/53/3 27/43/3
f 29/46/24 37/1/30 36/2/29 28/45/23
f 30/47/25 38/6/31 37/1/30 29/46/24
f 31/49/7 39/53/7 38/54/31 30/48/25
f 32/50/26 40/52/32 39/53/7 31/49/7
f 25/40/21 33/1/27 40/6/32 32/51/26
f 34/2/28 42/56/34 41/55/33 33/1/27
f 35/53/3 43/49/3 42/50/34 34/52/28
f 36/54/29 44/48/35 43/49/3 35/53/3
f 37/1/30 45/58/36 44/57/35 36/2/29
f 38/6/31 46/59/37 45/58/36 37/1/30
f 39/53/7 47/43/7 46/44/37 38/54/31
f 40/52/32 48/42/38 47/43/7 39/53/7
f 33/1/27 41/55/33 48/60/38 40/6/32
f 42/56/34 50/62/40 49/61/39 41/55/33
f 43/49/3 51/31/3 50/32/40 42/50/34
f 44/48/35 52/30/41 51/31/3 43/49/3
f 45/58/36 53/64/42 52/63/41 44/57/35
f 46/59/37 54/65/43 53/64/42 45/58/36
f 47/43/7 55/25/7 54/26/43 46/44/37
f 48/42/38 56/24/44 55/25/7 47/43/7
f 41/55/33 49/61/39 56/66/44 48/60/38
f 50/68/40 58/74/46 57/73/45 49/67/39
f 51/31/3 59/19/3 58/20/46 50/32/40
f 52/30/41 60/18/47 59/19/3 51/31/3
f 53/70/42 61/76/48 60/75/47 52/69/41
f 54/71/43 62/77/49 61/76/48 53/70/42
f 55/25/7 63/13/7 62/14/49 54/26/43
f 56/24/44 64/12/50 63/13/7 55/25/7
f 49/67/39 57/73/45 64/78/50 56/72/44
f 58/74/46 66/2/4 65/1/5 57/73/45
f 59/19/3 67/8/3 66/9/4 58/20/46
f 60/18/47 68/7/2 67/8/3 59/19/3
f 61/76/48 69/1/1 68/2/2 60/75/47
f 62/77/49 70/6/8 69/1/1 61/76/48
f 63/13/7 71/4/7 70/5/8 62/14/49
f 64/12/50 72/3/6 71/4/7 63/13/7
f 57/73/45 65/1/5 72/6/6 64/78/50
f 66/2/4 74/11/11 73/10/12 65/1/5
f 67/8/3 75/80/3 74/79/11 66/9/4
f 68/7/2 76/81/10 75/80/3 67/8/3
f 69/1/1 77/16/9 76/15/10 68/2/2
f 70/6/8 78/17/14 77/16/9 69/1/1
f 71/4/7 79/83/7 78/82/14 70/5/8
f 72/3/6 80/84/13 79/83/7 71/4/7
f 65/1/5 73/10/12 80/21/13 72/6/6
f 74/11/11 82/23/51 81/22/18 73/10/12
f 75/80/3 83/86/3 82/85/51 74/79/11
f 76/81/10 84/87/52 83/86/3 75/80/3
f 77/16/9 85/28/15 84/27/52 76/15/10
f 78/17/14 86/29/53 85/28/15 77/16/9
f 79/83/7 87/89/7 86/88/53 78/82/14
f 80/84/13 88/90/19 87/89/7 79/83/7
f 73/10/12 81/22/18 88/33/19 80/21/13
f 82/35/51 90/41/54 89/40/24 81/34/18
f 83/86/3 91/92/3 90/91/54 82/85/51
f 84/87/52 92/93/55 91/92/3 83/86/3
f 85/37/15 93/46/21 92/45/55 84/36/52
f 86/38/53 94/47/26 93/46/21 85/37/15
f 87/89/7 95/95/7 94/94/26 86/88/53
f 88/90/19 96/96/25 95/95/7 87/89/7
f 81/34/18 89/40/24 96/51/25 88/39/19
f 90/41/54 98/2/29 97/1/30 89/40/24
f 91/92/3 99/98/3 98/97/29 90/91/54
f 92/93/55 100/99/28 99/98/3 91/92/3
f 93/46/21 101/1/27 100/2/28 92/45/55
f 94/47/26 102/6/32 101/1/27 93/46/21
f 95/95/7 103/98/7 102/99/32 94/94/26
f 96/96/25 104/97/31 103/98/7 95/95/7
f 89/40/24 97/1/30 104/6/31 96/51/25
f 98/2/29 106/56/35 105/55/36 97/1/30
f 99/98/3 107/95/3 106/96/35 98/97/29
f 100/99/28 108/94/34 107/95/3 99/98/3
f 101/1/27 109/58/33 108/57/34 100/2/28
f 102/6/32 110/59/56 109/58/33 101/1/27
f 103/98/7 111/92/7 110/93/56 102/99/32
f 104/97/31 112/91/57 111/92/7 103/98/7
f 97/1/30 105/55/36 112/60/57 104/6/31
f 106/56/35 114/62/41 113/61/42 105/55/36
f 107/95/3 115/89/3 114/90/41 106/96/35
f 108/94/34 116/88/40 115/89/3 107/95/3
f 109/58/33 117/64/39 116/63/40 108/57/34
f 110/59/56 118/65/44 117/64/39 109/58/33
f 111/92/7 119/86/7 118/87/44 110/93/56
f 112/91/57 120/85/58 119/86/7 111/92/7
f 105/55/36 113/61/42 120/66/58 112/60/57
f 114/68/41 122/74/47 121/73/48 113/67/42
f 115/89/3 123/83/3 122/84/47 114/90/41
f 116/88/40 124/82/46 123/83/3 115/89/3
f 117/70/39 125/76/45 124/75/46 116/69/40
f 118/71/44 126/77/50 125/76/45 117/70/39
f 119/86/7 127/80/7 126/81/50 118/87/44
f 120/85/58 128/79/49 127/80/7 119/86/7
f 113/67/42 121/73/48 128/78/49 120/72/58
f 122/74/47 2/2/2 1/1/1 121/73/48
f 123/83/3 3/4/3 2/3/2 122/84/47
f 124/82/46 4/5/4 3/4/3 123/83/3
f 125/76/45 5/1/5 4/2/4 124/75/46
f 126/77/50 6/6/6 5/1/5 125/76/45
f 127/80/7 7/8/7 6/7/6 126/81/50
f 128/79/49 8/9/8 7/8/7 127/80/7
f 121/73/48 1/1/1 8/6/8 128/78/49

